<?xml version="1.0" encoding="UTF-8"?>
<svg width="32" height="32" viewBox="0 0 32 32" fill="none" xmlns="http://www.w3.org/2000/svg">
  <!-- Container body -->
  <path d="M8 8L10 28H22L24 8H8Z" fill="#FFA500"/>
  <!-- Glass effect -->
  <path d="M8 8L10 28H22L24 8H8Z" fill="white" fill-opacity="0.3"/>
  <!-- Container outline -->
  <path d="M8 8L10 28H22L24 8H8Z" stroke="#FF8C00" stroke-width="1.5"/>
  <!-- Top cap -->
  <path d="M7 6C7 5.44772 7.44772 5 8 5H24C24.5523 5 25 5.44772 25 6V8H7V6Z" fill="#FF8C00"/>
  <!-- Juice fill lines -->
  <path d="M11 12H21M11 16H21M11 20H21" stroke="#FF7B00" stroke-width="1.5" stroke-linecap="round"/>
  <!-- Cute face -->
  <circle cx="14" cy="24" r="1" fill="#FF7B00"/>
  <circle cx="18" cy="24" r="1" fill="#FF7B00"/>
  <path d="M14 26C15.5 27 16.5 27 18 26" stroke="#FF7B00" stroke-width="1" stroke-linecap="round"/>
</svg> 